<svg xmlns="http://www.w3.org/2000/svg" width="59.59" height="12.44" viewBox="0 0 59.59 12.44">
  <path id="logo" d="M10.188-15.037c0-2.445-1.178-3.642-3.136-3.642-1.074,0-2.443,1.247-2.962,1.6,0-3.293.052-4.923-.191-5.671C2.687-22.721.816-22.5.054-22.4c-.069.017-.069.067.017.116l1.369.715c-.052,1.081-.139,3.393-.139,5.255,0,3.343.017,5.072.087,5.871.017.1.1.067.173.033a6.254,6.254,0,0,0,1-.7,5.488,5.488,0,0,0,3.014.732A4.306,4.306,0,0,0,10.188-15.037ZM5.424-10.7a2.068,2.068,0,0,1-1.559-1.1c.087-1.231.225-2.694.225-5.189a4.912,4.912,0,0,1,1.7-.283c1.247,0,1.611.848,1.611,2.694,0,1.73-.26,3.309-.78,3.908A2.933,2.933,0,0,1,5.424-10.7Zm11.312.017-1.576-.765c.052-1.164.069-2.944.069-4.008,0-.6,0-1.081-.017-1.463a4.277,4.277,0,0,1,1.039-.333,15.931,15.931,0,0,1,2.01,1.181.513.513,0,0,0,.225,0,3.379,3.379,0,0,0,.52-1.763c.017-.615-.156-.881-.97-.848-.935.017-2.113,1.1-2.824,1.68a5.316,5.316,0,0,0-.173-1.513c-1.23,0-3.482.116-3.776.15-.1.017-.1.083-.017.133l1.317.715c-.035.649-.069,1.7-.069,3.11,0,1.164.035,2.262.069,2.96l-1.143.765c-.087.067-.1.133,0,.133h5.318C16.822-10.547,16.805-10.647,16.736-10.68Zm2.772-3.792c0,2.977,1.836,4.124,4.556,4.124a4.485,4.485,0,0,0,3.4-1.73c.1-.15-.017-.183-.087-.133a4.7,4.7,0,0,1-2.408.516c-1.836,0-2.512-1.081-2.616-3.459l4.989.083a.306.306,0,0,0,.173-.15A3.107,3.107,0,0,0,24.1-18.763C21.673-18.763,19.508-17.466,19.508-14.472Zm2.841-.8a5.988,5.988,0,0,1,.676-3.243,3.858,3.858,0,0,1,.866.017c.832.1,1.109.715,1.109,2.2a6.846,6.846,0,0,1-.052.815Zm6.132.8c0,2.977,1.836,4.124,4.556,4.124a4.485,4.485,0,0,0,3.4-1.73c.1-.15-.017-.183-.087-.133a4.7,4.7,0,0,1-2.408.516c-1.836,0-2.512-1.081-2.616-3.459l4.989.083a.306.306,0,0,0,.173-.15,3.107,3.107,0,0,0-3.413-3.542C30.646-18.763,28.481-17.466,28.481-14.472Zm2.841-.8A5.988,5.988,0,0,1,32-18.513a3.858,3.858,0,0,1,.866.017c.832.1,1.109.715,1.109,2.2a6.846,6.846,0,0,1-.052.815Zm14.586,1.6L43.622-10.83l-3.378.133c.693-.815,2.269-2.827,3.187-4.058.953-1.281,2.165-2.944,2.581-3.642.069-.133.087-.183-.139-.183l-2.477.033-4.677-.033a2.29,2.29,0,0,0-.208.2c-.139.565-.416,2.079-.52,2.644-.017.116.035.183.208,0l2.2-2.544,3-.15c-.676.765-2.2,2.544-3.084,3.725-.987,1.347-2.269,3.193-2.754,3.958-.087.15-.087.2.121.2l2.547-.033,5.18.033a.492.492,0,0,0,.191-.183c.121-.5.416-2.262.5-2.944C46.116-13.79,46.047-13.823,45.908-13.674Zm1.351-.8c0,2.977,1.836,4.124,4.556,4.124a4.485,4.485,0,0,0,3.4-1.73c.1-.15-.017-.183-.087-.133a4.7,4.7,0,0,1-2.408.516c-1.836,0-2.512-1.081-2.616-3.459l4.989.083a.306.306,0,0,0,.173-.15,3.107,3.107,0,0,0-3.413-3.542C49.425-18.763,47.26-17.466,47.26-14.472Zm2.841-.8a5.989,5.989,0,0,1,.676-3.243,3.858,3.858,0,0,1,.866.017c.832.1,1.109.715,1.109,2.2a6.845,6.845,0,0,1-.052.815Zm7.969,4.956a1.452,1.452,0,0,0,1.524-1.447,1.459,1.459,0,0,0-1.524-1.48,1.5,1.5,0,0,0-1.542,1.48A1.5,1.5,0,0,0,58.069-10.314Z" transform="translate(-0.004 22.754)" fill="#31363e"/>
</svg>
