<svg xmlns="http://www.w3.org/2000/svg" width="44.999" height="45" viewBox="0 0 44.999 45">
  <path id="_3" data-name="3" d="M8112.5,13045a22.5,22.5,0,1,1,15.908-6.59A22.359,22.359,0,0,1,8112.5,13045Zm0-29.753a7.092,7.092,0,0,0-.209,14.182l.1,0-.02,1.489a.728.728,0,0,0,.1.423.793.793,0,0,0,.3.288.918.918,0,0,0,.4.117h.033a.7.7,0,0,0,.367-.107,12.191,12.191,0,0,0,4.109-4.361c1.525-2.354,1.909-3.181,1.909-4.937a6.842,6.842,0,0,0-.563-2.771,7.366,7.366,0,0,0-1.522-2.242,7.287,7.287,0,0,0-2.239-1.519A6.826,6.826,0,0,0,8112.5,13015.248Z" transform="translate(-8090 -13000.001)" fill="#fff"/>
</svg>
