<svg xmlns="http://www.w3.org/2000/svg" width="95.248" height="14.962" viewBox="0 0 95.248 14.962">
  <g id="logo_2_" data-name="logo (2)" transform="translate(-1.4 -1.3)">
    <g id="Group_1669" data-name="Group 1669" transform="translate(21.55 4.246)">
      <path id="Path_2183" data-name="Path 2183" d="M85.139,22.088H78.7V12.6h1.121v8.315l-.13.13h5.422v1.043Z" transform="translate(-78.7 -12.6)" fill="#31363e"/>
      <path id="Path_2184" data-name="Path 2184" d="M113.386,24.5h-5.969l.13.13A2.264,2.264,0,0,0,110,26.795a2.812,2.812,0,0,0,2.033-.808l.756.756a3.855,3.855,0,0,1-2.815,1.069c-2.45,0-3.571-1.616-3.571-3.754,0-2.268,1.277-3.858,3.519-3.858,2.346,0,3.467,1.642,3.467,3.858A1.262,1.262,0,0,1,113.386,24.5Zm-.964-.991-.13-.1a2.234,2.234,0,0,0-2.346-2.164,2.283,2.283,0,0,0-2.4,2.164l-.13.1Z" transform="translate(-99.179 -18.219)" fill="#31363e"/>
      <path id="Path_2185" data-name="Path 2185" d="M143.255,20.7l-3.128,7.377h-1.173L135.8,20.7H137l2.216,5.292.313.938h.026l.313-.938,2.216-5.292Z" transform="translate(-120.916 -18.589)" fill="#31363e"/>
      <path id="Path_2186" data-name="Path 2186" d="M173.586,24.5h-5.969l.13.13a2.264,2.264,0,0,0,2.45,2.164,2.812,2.812,0,0,0,2.033-.808l.756.756a3.855,3.855,0,0,1-2.815,1.069c-2.45,0-3.571-1.616-3.571-3.754,0-2.268,1.277-3.858,3.519-3.858,2.346,0,3.467,1.642,3.467,3.858A2.512,2.512,0,0,1,173.586,24.5Zm-.964-.991-.13-.1a2.234,2.234,0,0,0-2.346-2.164,2.283,2.283,0,0,0-2.4,2.164l-.13.1Z" transform="translate(-143.687 -18.219)" fill="#31363e"/>
      <path id="Path_2187" data-name="Path 2187" d="M203.7,21.521h-.365c-1.069,0-2.268.7-2.268,2.685v3.649H200V20.478h1.069v1.277h.026a2.526,2.526,0,0,1,2.346-1.355h.235v1.121Z" transform="translate(-168.381 -18.367)" fill="#31363e"/>
      <path id="Path_2188" data-name="Path 2188" d="M224.017,27.855h-1.069V27.2h-.026a3.592,3.592,0,0,1-2.4.782c-1.486,0-3.024-.573-3.024-2.268,0-2.32,2.919-2.4,4.718-2.4a6.27,6.27,0,0,1,.808.052l-.13-.13v-.156c0-1.277-.938-1.668-2.033-1.668a3.481,3.481,0,0,0-2.32.73l-.756-.73a4.525,4.525,0,0,1,3.076-1.017c1.564,0,3.1.626,3.1,2.685v4.77Zm-.964-3.571c-.13,0-.521-.026-.756-.026-1.277,0-3.728-.026-3.728,1.46,0,.991,1.147,1.251,1.955,1.251.756,0,2.4-.209,2.4-1.277v-1.3Z" transform="translate(-181.319 -18.367)" fill="#31363e"/>
      <path id="Path_2189" data-name="Path 2189" d="M255.63,20.256v6.751c0,2.007-1.069,3.154-3.337,3.154a4.841,4.841,0,0,1-3.024-.991l.782-.782a3.686,3.686,0,0,0,2.242.756,2,2,0,0,0,2.268-2.164v-.912h-.026a2.963,2.963,0,0,1-2.372.964,3.106,3.106,0,0,1-3.363-3.441,3.233,3.233,0,0,1,3.363-3.493,3.018,3.018,0,0,1,2.372,1.017h.026V20.2h1.069Zm-3.415.912a2.205,2.205,0,0,0-2.346,2.45,2.155,2.155,0,0,0,2.346,2.4,2.208,2.208,0,0,0,2.45-2.4A2.26,2.26,0,0,0,252.215,21.169Z" transform="translate(-204.46 -18.145)" fill="#31363e"/>
      <path id="Path_2190" data-name="Path 2190" d="M288.486,24.5h-5.969l.13.13a2.264,2.264,0,0,0,2.45,2.164,2.812,2.812,0,0,0,2.033-.808l.756.756a3.855,3.855,0,0,1-2.815,1.069c-2.45,0-3.571-1.616-3.571-3.754,0-2.268,1.3-3.858,3.519-3.858,2.346,0,3.467,1.642,3.467,3.858C288.486,24.24,288.486,24.345,288.486,24.5Zm-.964-.991-.13-.1a2.234,2.234,0,0,0-2.346-2.164,2.283,2.283,0,0,0-2.4,2.164l-.13.1Z" transform="translate(-228.636 -18.219)" fill="#31363e"/>
      <path id="Path_2191" data-name="Path 2191" d="M322.229,22.088H321.6l-1.147-2.476a2.585,2.585,0,0,0-2.659-1.668h-2.529l.052.052v4.092H314.8V12.6h3.858a2.576,2.576,0,0,1,2.893,2.685,2.481,2.481,0,0,1-2.138,2.528v.026a2.782,2.782,0,0,1,1.512,1.564ZM318.684,13.1H315.3l.052.078v4.2l-.052.078h3.284a2.152,2.152,0,0,0,2.45-2.164A2.069,2.069,0,0,0,318.684,13.1Z" transform="translate(-253.256 -12.6)" fill="#31363e"/>
      <path id="Path_2192" data-name="Path 2192" d="M350.239,28h-.626l-1.929-2.789-.339-.573h-.026l-.339.573L345.026,28H344.4l2.607-3.728L344.426,20.6h.626l1.877,2.711.339.573h.026l.339-.573,1.9-2.711h.626l-2.581,3.675Z" transform="translate(-275.14 -18.515)" fill="#31363e"/>
    </g>
    <g id="Group_1670" data-name="Group 1670" transform="translate(1.4 1.3)">
      <path id="Path_2193" data-name="Path 2193" d="M22.4,6.9a5.984,5.984,0,0,0-3.884,1.434,5.406,5.406,0,0,1,1.3-.156A5.992,5.992,0,0,1,25.707,13.1l-.078-.313A6.012,6.012,0,0,1,19.79,17.4,6.489,6.489,0,0,1,18.2,17.2a5.981,5.981,0,0,0,4.171,1.694,5.406,5.406,0,0,0,1.3-.156,7.329,7.329,0,0,0,.886-.912,3.725,3.725,0,0,0,.365-.521,3.725,3.725,0,0,1-.365.521,4.9,4.9,0,0,1-.886.912A5.988,5.988,0,0,0,22.4,6.9Zm3.415,6.96v0Zm-.078-.7c.026.1.026.209.052.287A.937.937,0,0,1,25.733,13.156Zm.052.365c0,.078.026.182.026.261A.887.887,0,0,1,25.785,13.521Z" transform="translate(-13.821 -5.44)" fill="#31363e"/>
      <path id="Path_2194" data-name="Path 2194" d="M1.556,8.677a6.017,6.017,0,0,0,4.249,4.405,5.982,5.982,0,0,1,.287-8.863,5.406,5.406,0,0,1,1.3-.156,6.012,6.012,0,0,1,5.839,4.614A6.068,6.068,0,0,0,13.391,7.3,6,6,0,1,0,1.4,7.3a6.068,6.068,0,0,0,.156,1.382" transform="translate(-1.4 -1.3)" fill="#31363e"/>
      <path id="Path_2195" data-name="Path 2195" d="M13.465,18.265a6.068,6.068,0,0,0-.156-1.382A6.012,6.012,0,0,1,7.469,21.5a6.489,6.489,0,0,1-1.59-.209l-.209-.209c-.13-.13-.261-.287-.391-.443a3.32,3.32,0,0,1-.339-.5,2.292,2.292,0,0,1-.156-.261,4.86,4.86,0,0,1-.261-.521.934.934,0,0,1-.1-.287,4.864,4.864,0,0,1-.182-.573,5.936,5.936,0,0,1,1.9-6.1,3.152,3.152,0,0,0-.469.13c-.052.026-.1.026-.156.052-.1.026-.209.078-.287.1a1.271,1.271,0,0,1-.182.078,1.218,1.218,0,0,0-.261.13,1.271,1.271,0,0,1-.182.078c-.078.052-.156.078-.235.13a1.133,1.133,0,0,1-.182.1l-.235.156a3.813,3.813,0,0,1-.339.235c-.052.052-.1.078-.156.13-.078.052-.13.13-.209.182l-.1.1a1.573,1.573,0,0,1-.209.209c-.026.026-.052.078-.078.1a2.279,2.279,0,0,0-.209.261c.052.026.052.052.026.078a5.859,5.859,0,0,0-.912,1.8v.026a2.172,2.172,0,0,0-.1.391h0A6.068,6.068,0,0,0,1.5,18.265a5.991,5.991,0,0,0,9.879,4.562,4.865,4.865,0,0,1-.652.1,5.645,5.645,0,0,0,.652-.1A6,6,0,0,0,13.465,18.265ZM5.879,21.289a6.581,6.581,0,0,0,.652.547C6.322,21.654,6.088,21.471,5.879,21.289Z" transform="translate(-1.474 -9.507)" fill="#31363e"/>
      <path id="Path_2196" data-name="Path 2196" d="M21.177,8.377c.156.026.287.026.443.052a.1.1,0,0,1,.078.026,2.727,2.727,0,0,1,.443.1h.052a2.562,2.562,0,0,1,.417.13c.026,0,.026,0,.052.026a2.9,2.9,0,0,1,.417.182.091.091,0,0,1,.052.026,2.849,2.849,0,0,1,.391.209c.026,0,.026.026.052.026.261.156.521.339.782.521l.026.026a4.008,4.008,0,0,1,.339.313l.026.026a6.349,6.349,0,0,1,.912,1.121h0a5.688,5.688,0,0,1,.782,1.825A6.068,6.068,0,0,0,26.6,11.61a5.983,5.983,0,0,0-1.825-4.3,6.327,6.327,0,0,0-1.59-.209A5.984,5.984,0,0,0,19.3,8.534c.052,0,.1-.026.156-.026s.1-.026.156-.026a2.026,2.026,0,0,1,.417-.052h.13c.156,0,.313-.026.469-.026a2.833,2.833,0,0,1,.469.026C21.125,8.377,21.151,8.377,21.177,8.377Z" transform="translate(-14.634 -5.588)" fill="#31363e"/>
      <path id="Path_2197" data-name="Path 2197" d="M25.885,30.982a6.068,6.068,0,0,0-.156-1.382,6.012,6.012,0,0,1-5.839,4.614,6.489,6.489,0,0,1-1.59-.209A5.981,5.981,0,0,0,22.471,35.7a5.406,5.406,0,0,0,1.3-.156A5.933,5.933,0,0,0,25.885,30.982Z" transform="translate(-13.895 -22.223)" fill="#31363e"/>
      <path id="Path_2198" data-name="Path 2198" d="M4.424,17.062A5.933,5.933,0,0,1,6.536,12.5,6,6,0,0,0,2,16.957a6.017,6.017,0,0,0,4.249,4.405A6.028,6.028,0,0,1,4.424,17.062Z" transform="translate(-1.844 -9.581)" fill="#31363e"/>
    </g>
  </g>
</svg>
