<svg xmlns="http://www.w3.org/2000/svg" width="106.455" height="48.149" viewBox="0 0 106.455 48.149">
  <g id="metrodi-logotype-horizontal" transform="translate(0 0)">
    <g id="Group_2594" data-name="Group 2594" transform="translate(58.028 0)">
      <path id="Subtraction_1" data-name="Subtraction 1" d="M24.208,48.148a24.472,24.472,0,0,1-4.029-.334,16.183,16.183,0,0,0,7.893-13.853c0-.41-.015-.823-.046-1.226h.046V.017A23.937,23.937,0,0,1,37.62,3.76a4.587,4.587,0,1,0,4.935,4.574c0-.072,0-.147-.005-.221a24.22,24.22,0,0,1-.815,32.53V21.673a3.81,3.81,0,0,0-7.619,0V45.805c0,.075,0,.151.007.227A24.034,24.034,0,0,1,24.208,48.148ZM0,23.2v0A24.227,24.227,0,0,1,20.453,0V20.274A16.1,16.1,0,0,0,0,23.2Z" transform="translate(0 0)" fill="#242d3d"/>
      <circle id="Ellipse_15" data-name="Ellipse 15" cx="7.917" cy="7.917" r="7.917" transform="translate(4.42 25.779)" fill="#242d3d" opacity="0"/>
    </g>
    <path id="Path_2232" data-name="Path 2232" d="M18.924-13.176a5.2,5.2,0,0,0-4.734,2.6,4.755,4.755,0,0,0-4.609-2.6,5.156,5.156,0,0,0-4.389,2.54V-12.8H1.68V2.062H5.442V-7.752A3.527,3.527,0,0,1,8.358-9.664c1.881,0,2.665,1.1,2.665,3.135v8.59h3.762V-7.752A3.527,3.527,0,0,1,17.7-9.664c1.881,0,2.665,1.1,2.665,3.135v8.59h3.762V-7.5C24.128-11.075,21.933-13.176,18.924-13.176Zm14.171,0a7.5,7.5,0,0,0-7.462,7.807,7.811,7.811,0,0,0,7.995,7.807A9.518,9.518,0,0,0,39.585.306L37.7-2.516a5.981,5.981,0,0,1-4.076,1.5,4.242,4.242,0,0,1-4.17-3.01h11.1c.031-.564.031-1.129.031-1.411A7.474,7.474,0,0,0,33.095-13.176ZM29.458-6.748a3.42,3.42,0,0,1,3.637-3.01,3.454,3.454,0,0,1,3.731,3.01ZM40.9-9.413h2.916v6.584A4.974,4.974,0,0,0,48.9,2.438a6.769,6.769,0,0,0,3.574-.972L51.091-1.607a2.978,2.978,0,0,1-1.568.533c-1,0-1.944-.533-1.944-2.351V-9.413h4.483V-12.8H47.58V-17.22H43.817V-12.8H40.9Zm20.6-3.762a4.839,4.839,0,0,0-4.044,2.54V-12.8H53.881V2.062h3.762V-7.658a3.929,3.929,0,0,1,3.323-2.007,4.321,4.321,0,0,1,1.787.345l1.317-3.386A8.087,8.087,0,0,0,61.5-13.176Zm9.688,0a7.8,7.8,0,0,0-7.932,7.807,7.816,7.816,0,0,0,7.932,7.807A7.816,7.816,0,0,0,79.12-5.369,7.8,7.8,0,0,0,71.188-13.176Zm0,12.1a4.068,4.068,0,0,1-4.107-4.3,4.068,4.068,0,0,1,4.107-4.3,4.068,4.068,0,0,1,4.107,4.3A4.068,4.068,0,0,1,71.188-1.074Z" transform="translate(-1.68 40.719)" fill="#242d3d"/>
  </g>
</svg>
