<svg xmlns="http://www.w3.org/2000/svg" width="60.854" height="47.076" viewBox="0 0 60.854 47.076">
  <path id="quote-open" d="M-6.982-85.3c-10.17,7.053-16.895,18.043-16.895,30.345,0,10.662,6.889,16.731,14.6,16.731A13.093,13.093,0,0,0,3.68-51.184c0-7.053-4.921-11.81-11.154-11.81a8.068,8.068,0,0,0-3.281.492C-9.279-68.407-3.21-75.3,2.039-78.085Zm33.3,0C16.146-78.249,9.585-67.259,9.585-54.957c0,10.662,6.725,16.731,14.434,16.731A12.985,12.985,0,0,0,36.977-51.184c0-7.053-4.921-11.81-10.99-11.81a8.068,8.068,0,0,0-3.281.492c1.312-5.9,7.545-12.794,12.794-15.583Z" transform="translate(23.877 85.302)" fill="#303846"/>
</svg>
